<svg style="fill-rule:evenodd;clip-rule:evenodd;stroke-linejoin:round;stroke-miterlimit:2;" xml:space="preserve" xmlns:xlink="http://www.w3.org/1999/xlink" xmlns="http://www.w3.org/2000/svg" version="1.1" viewBox="0 0 2230 2500" height="100%" width="100%"><path style="fill:#ec5526;fill-rule:nonzero;" d="M1770.4,2016.82l-250.262,-770.331l655.122,-475.959l-809.808,0l-250.287,-770.313l-0.079,-0.209l809.93,0l250.349,770.435l0.017,-0.017l0.209,-0.113c145.384,446.951 -4.355,955.313 -405.191,1246.5l0,0.009l0,-0.002Zm-1310.54,-0l-0.201,0.148l655.296,476.088l655.445,-476.219l-655.235,-476.098l-655.297,476.081l-0.008,0Zm-405.009,-1246.49c-153.049,471.15 24.608,970.383 404.887,1246.59l0.061,-0.244l250.305,-770.287l-654.983,-475.871l809.617,-0l250.296,-770.305l0.052,-0.209l-809.974,0l-250.27,770.331l0.009,0l0,-0.005Z"></path></svg>