<svg version="1.1" viewBox="0 0 80 80" height="80pt" width="80pt" xmlns:xlink="http://www.w3.org/1999/xlink" xmlns="http://www.w3.org/2000/svg">
<g id="surface1">
<path d="M 5 7 L 75 7 L 75 73 L 5 73 Z" style="stroke:none;fill-rule:nonzero;fill:#FFFFFF;fill-opacity:1;"></path>
<path d="M 74 8 L 74 72 L 6 72 L 6 8 L 74 8 M 76 6 L 4 6 L 4 74 L 76 74 Z" style="stroke:none;fill-rule:nonzero;fill:#4788C7;fill-opacity:1;"></path>
<path d="M 6 8 L 74 8 L 74 18 L 6 18 Z" style="stroke:none;fill-rule:nonzero;fill:#98CCFD;fill-opacity:1;"></path>
<path transform="matrix(2,0,0,2,0,0)" d="M 14.5 26.529297 L 8.75 22.029297 L 14.5 17.529297" style="fill:none;stroke-width:1;stroke-linecap:round;stroke-linejoin:miter;stroke:#4788C7;stroke-opacity:1;stroke-miterlimit:4;"></path>
<path transform="matrix(2,0,0,2,0,0)" d="M 22.5 15.5 L 17.5 28.5" style="fill:none;stroke-width:1;stroke-linecap:round;stroke-linejoin:miter;stroke:#4788C7;stroke-opacity:1;stroke-miterlimit:4;"></path>
<path transform="matrix(2,0,0,2,0,0)" d="M 25.5 26.529297 L 31.25 22.029297 L 25.5 17.529297" style="fill:none;stroke-width:1;stroke-linecap:round;stroke-linejoin:miter;stroke:#4788C7;stroke-opacity:1;stroke-miterlimit:4;"></path>
</g>
</svg>
