<svg height="144px" width="144px" viewBox="0 0 48 48" xmlns="http://www.w3.org/2000/svg"><linearGradient gradientUnits="userSpaceOnUse" y2="22.933" y1="7.827" x2="39.672" x1="24.523" id="rwH3R4FXAjAwf7QMo6soOa"><stop stop-color="#c26715" offset="0"></stop><stop stop-color="#b85515" offset=".508"></stop><stop stop-color="#ad3f16" offset="1"></stop></linearGradient><path d="M42,17H15V6h26c0.552,0,1,0.448,1,1V17z" fill="url(#rwH3R4FXAjAwf7QMo6soOa)"></path><linearGradient gradientUnits="userSpaceOnUse" y2="18.107" y1="1.98" x2="27.973" x1="7.292" id="rwH3R4FXAjAwf7QMo6soOb"><stop stop-color="#eba84b" offset="0"></stop><stop stop-color="#d97218" offset="1"></stop></linearGradient><path d="M32,17H7c-0.552,0-1-0.448-1-1V7c0-0.552,0.448-1,1-1h25c0.552,0,1,0.448,1,1v9	C33,16.552,32.552,17,32,17z" fill="url(#rwH3R4FXAjAwf7QMo6soOb)"></path><path opacity=".05" d="M42,14H6v2c0,0.552,0.448,1,1,1h8h17h10V14z"></path><path opacity=".07" d="M42,14.5H6V16c0,0.552,0.448,1,1,1h8h17h10V14.5z"></path><linearGradient gradientUnits="userSpaceOnUse" gradientTransform="translate(0 -474)" y2="512.013" y1="492.536" x2="46.45" x1="27.534" id="rwH3R4FXAjAwf7QMo6soOc"><stop stop-color="#eba600" offset="0"></stop><stop stop-color="#c28200" offset="1"></stop></linearGradient><path d="M42,42H31V15h12c0.552,0,1,0.448,1,1v24C44,41.105,43.105,42,42,42z" fill="url(#rwH3R4FXAjAwf7QMo6soOc)"></path><linearGradient gradientUnits="userSpaceOnUse" gradientTransform="translate(0 -474)" y2="515.487" y1="488.435" x2="31.69" x1="5.418" id="rwH3R4FXAjAwf7QMo6soOd"><stop stop-color="#ffd869" offset="0"></stop><stop stop-color="#fec52b" offset="1"></stop></linearGradient><path d="M31,42H6c-1.105,0-2-0.895-2-2V16c0-0.552,0.448-1,1-1h28v25C33,41.105,32.105,42,31,42z" fill="url(#rwH3R4FXAjAwf7QMo6soOd)"></path><linearGradient gradientUnits="userSpaceOnUse" gradientTransform="translate(0 -474)" y2="463.029" y1="494.74" x2="17.154" x1="17.154" id="rwH3R4FXAjAwf7QMo6soOe"><stop stop-color="#eba600" offset="0"></stop><stop stop-color="#c28200" offset="1"></stop></linearGradient><path d="M33,15H4.618c-0.379,0-0.725,0.214-0.894,0.553l-2.362,4.724C1.196,20.609,1.437,21,1.809,21	h27.573c0.379,0,0.725-0.214,0.894-0.553L33,15z" fill="url(#rwH3R4FXAjAwf7QMo6soOe)"></path><linearGradient gradientUnits="userSpaceOnUse" gradientTransform="translate(0 -474)" y2="490.572" y1="494.729" x2="39.846" x1="39.846" id="rwH3R4FXAjAwf7QMo6soOf"><stop stop-color="#ffd869" offset="0"></stop><stop stop-color="#fec52b" offset="1"></stop></linearGradient><path d="M33,15h10.382c0.379,0,0.725,0.214,0.894,0.553l2.362,4.724	C46.804,20.609,46.563,21,46.191,21h-9.573c-0.379,0-0.725-0.214-0.894-0.553L33,15z" fill="url(#rwH3R4FXAjAwf7QMo6soOf)"></path></svg>