<svg height="128px" width="128px" viewBox="0 0 128 128" xmlns="http://www.w3.org/2000/svg"><path d="M14,108V25c0-2.761,2.239-5,5-5h90c2.761,0,5,2.239,5,5v83" fill="#fff"></path><path d="M28 61L35 61M47 61L76 61" stroke-width="6" stroke-miterlimit="10" stroke-linecap="round" stroke="#9eb9d3" fill="none"></path><path d="M88 58A3 3 0 1 0 88 64 3 3 0 1 0 88 58zM100 58A3 3 0 1 0 100 64 3 3 0 1 0 100 58z" fill="#9eb9d3"></path><path d="M28 77L35 77M47 77L76 77" stroke-width="6" stroke-miterlimit="10" stroke-linecap="round" stroke="#9eb9d3" fill="none"></path><path d="M100 74A3 3 0 1 0 100 80A3 3 0 1 0 100 74Z" fill="#9eb9d3"></path><path d="M28 93L35 93M47 93L76 93" stroke-width="6" stroke-miterlimit="10" stroke-linecap="round" stroke="#9eb9d3" fill="none"></path><path d="M88 90A3 3 0 1 0 88 96 3 3 0 1 0 88 90zM100 90A3 3 0 1 0 100 96 3 3 0 1 0 100 90zM114 43H14V25c0-2.761 2.239-5 5-5h90c2.761 0 5 2.239 5 5V43z" fill="#9eb9d3"></path><path d="M104,30H69c-1.657,0-3,1.343-3,3c0,1.657,1.343,3,3,3h35c1.657,0,3-1.343,3-3S105.657,30,104,30z" fill="#fff"></path><path d="M14,108V25 c0-2.761,2.239-5,5-5h90c2.761,0,5,2.239,5,5v83" stroke-width="6" stroke-miterlimit="10" stroke-linecap="round" stroke="#444b54" fill="none"></path><path d="M24 30A3 3 0 1 0 24 36 3 3 0 1 0 24 30zM34 30A3 3 0 1 0 34 36 3 3 0 1 0 34 30zM44 30A3 3 0 1 0 44 36 3 3 0 1 0 44 30z" fill="#fff"></path></svg>