<svg height="96px" width="96px" xml:space="preserve" style="enable-background:new 0 0 64 64;" viewBox="0 0 64 64" y="0px" x="0px" id="Слой_1" version="1.1" xmlns:xlink="http://www.w3.org/1999/xlink" xmlns="http://www.w3.org/2000/svg">
<linearGradient spreadMethod="reflect" y2="37.5036" x2="43" y1="28.8333" x1="43" gradientUnits="userSpaceOnUse" id="SVGID_1__44764">
	<stop style="stop-color:#6DC7FF" offset="0"></stop>
	<stop style="stop-color:#E6ABFF" offset="1"></stop>
</linearGradient>
<path d="M47,33c0,2.21-1.79,4-4,4s-4-1.79-4-4c0-2.21,1.79-4,4-4C43,31.21,44.79,33,47,33z" style="fill:url(#SVGID_1__44764);"></path>
<linearGradient spreadMethod="reflect" y2="43.3275" x2="16" y1="36.8333" x1="16" gradientUnits="userSpaceOnUse" id="SVGID_2__44764">
	<stop style="stop-color:#6DC7FF" offset="0"></stop>
	<stop style="stop-color:#E6ABFF" offset="1"></stop>
</linearGradient>
<path d="M20,42c0,0.552-0.448,1-1,1h-6c-0.552,0-1-0.448-1-1v-4c0-0.552,0.448-1,1-1h6  c0.552,0,1,0.448,1,1V42z" style="fill:url(#SVGID_2__44764);"></path>
<linearGradient spreadMethod="reflect" y2="57.825" x2="32" y1="7.375" x1="32" gradientUnits="userSpaceOnUse" id="SVGID_3__44764">
	<stop style="stop-color:#1A6DFF" offset="0"></stop>
	<stop style="stop-color:#C822FF" offset="1"></stop>
</linearGradient>
<path d="M58,33c0-4.335-7.062-10.397-14-10.946V11c0-1.654-1.346-3-3-3H9c-1.654,0-3,1.346-3,3v38v4  c0,1.654,1.346,3,3,3h32c1.654,0,3-1.346,3-3v-4v-5.054C50.938,43.397,58,37.335,58,33z M41,54H9c-0.552,0-1-0.448-1-1v-1.184  C8.314,51.928,8.648,52,9,52h32c0.352,0,0.686-0.072,1-0.184V53C42,53.552,41.552,54,41,54z M41,50H9c-0.552,0-1-0.448-1-1V11  c0-0.552,0.448-1,1-1h32c0.552,0,1,0.448,1,1v11.054C35.062,22.603,28,28.665,28,33s7.062,10.397,14,10.946V49  C42,49.552,41.552,50,41,50z M43,42c-6.317,0-13-5.853-13-9s6.683-9,13-9s13,5.853,13,9S49.317,42,43,42z" style="fill:url(#SVGID_3__44764);"></path>
<linearGradient spreadMethod="reflect" y2="57.825" x2="20" y1="7.375" x1="20" gradientUnits="userSpaceOnUse" id="SVGID_4__44764">
	<stop style="stop-color:#1A6DFF" offset="0"></stop>
	<stop style="stop-color:#C822FF" offset="1"></stop>
</linearGradient>
<rect height="2" width="16" style="fill:url(#SVGID_4__44764);" y="21" x="12"></rect>
<linearGradient spreadMethod="reflect" y2="57.825" x2="19" y1="7.375" x1="19" gradientUnits="userSpaceOnUse" id="SVGID_5__44764">
	<stop style="stop-color:#1A6DFF" offset="0"></stop>
	<stop style="stop-color:#C822FF" offset="1"></stop>
</linearGradient>
<rect height="2" width="14" style="fill:url(#SVGID_5__44764);" y="25" x="12"></rect>
<linearGradient spreadMethod="reflect" y2="57.825" x2="17" y1="7.375" x1="17" gradientUnits="userSpaceOnUse" id="SVGID_6__44764">
	<stop style="stop-color:#1A6DFF" offset="0"></stop>
	<stop style="stop-color:#C822FF" offset="1"></stop>
</linearGradient>
<rect height="2" width="10" style="fill:url(#SVGID_6__44764);" y="29" x="12"></rect>
<linearGradient spreadMethod="reflect" y2="57.825" x2="16" y1="7.375" x1="16" gradientUnits="userSpaceOnUse" id="SVGID_7__44764">
	<stop style="stop-color:#1A6DFF" offset="0"></stop>
	<stop style="stop-color:#C822FF" offset="1"></stop>
</linearGradient>
<rect height="2" width="8" style="fill:url(#SVGID_7__44764);" y="33" x="12"></rect>
<linearGradient spreadMethod="reflect" y2="57.825" x2="25" y1="7.375" x1="25" gradientUnits="userSpaceOnUse" id="SVGID_8__44764">
	<stop style="stop-color:#1A6DFF" offset="0"></stop>
	<stop style="stop-color:#C822FF" offset="1"></stop>
</linearGradient>
<rect height="2" width="26" style="fill:url(#SVGID_8__44764);" y="17" x="12"></rect>
</svg>
