<svg height="96px" width="96px" xml:space="preserve" style="enable-background:new 0 0 48 48;" viewBox="0 0 48 48" y="0px" x="0px" id="Layer_1" version="1.1" xmlns:xlink="http://www.w3.org/1999/xlink" xmlns="http://www.w3.org/2000/svg">
<path d="M24,28L6,35V20l18-7V28z" style="fill:#891212;"></path>
<path d="M42,20l-18-7v15l18,7V20z" style="fill:#891212;"></path>
<path d="M26,18.5c0,1.379-1.121,2.5-2.5,2.5S21,19.879,21,18.5s1.121-2.5,2.5-2.5S26,17.121,26,18.5z" style="fill:#891212;"></path>
<path d="M23.5,6C16.598,6,11,11.598,11,18.5S16.598,31,23.5,31S36,25.402,36,18.5S30.402,6,23.5,6z   M23.5,20.805c-1.273,0-2.305-1.031-2.305-2.305s1.031-2.305,2.305-2.305s2.305,1.031,2.305,2.305S24.77,20.805,23.5,20.805z" style="fill:#90CAF9;"></path>
<path d="M20.676,19.844L13,25.344c0.879,1.316,2.516,2.938,4.188,4l5.43-7.531  C21.684,21.516,20.957,20.781,20.676,19.844z" style="fill:#CFE8F9;"></path>
<path d="M30.27,8l-5.965,8.164c0.938,0.266,1.68,0.977,1.988,1.895l8.117-5.648  C33.41,10.621,31.984,9.109,30.27,8z" style="fill:#CFE8F9;"></path>
<path d="M24,27L6,20v15l18,7V27z" style="fill:#F44336;"></path>
<path d="M42,35l-18,7V27l18-7V35z" style="fill:#C62828;"></path>
<path d="M23.5,15c-1.934,0-3.5,1.566-3.5,3.5s1.566,3.5,3.5,3.5s3.5-1.566,3.5-3.5S25.434,15,23.5,15z   M23.5,20c-0.828,0-1.5-0.672-1.5-1.5s0.672-1.5,1.5-1.5s1.5,0.672,1.5,1.5S24.328,20,23.5,20z" style="fill:#1E88E5;"></path>
</svg>
