<svg style="fill-rule:evenodd;clip-rule:evenodd;stroke-linejoin:round;stroke-miterlimit:1.41421;" xml:space="preserve" xmlns:xlink="http://www.w3.org/1999/xlink" xmlns="http://www.w3.org/2000/svg" version="1.1" viewBox="0 0 64 64" height="100%" width="100%">
    <g>
        <path style="fill:#ff5576;" d="M3.929,43.929c3.902,-3.903 10.239,-3.903 14.142,0c3.902,3.902 3.902,10.239 0,14.142c-3.903,3.902 -10.24,3.902 -14.142,0c-3.903,-3.903 -3.903,-10.24 0,-14.142Z"></path>
        <path style="fill:#fff;fill-rule:nonzero;" d="M7.5,56c-0.4,0 -0.75,-0.15 -1.05,-0.45c-0.6,-0.6 -0.6,-1.55 0,-2.1l7,-7c0.6,-0.6 1.55,-0.6 2.1,0c0.6,0.6 0.6,1.55 0,2.1l-7,7c-0.3,0.3 -0.65,0.45 -1.05,0.45Z"></path>
        <path style="fill:#fff;fill-rule:nonzero;" d="M14.5,56c-0.4,0 -0.75,-0.15 -1.05,-0.45l-7,-7c-0.6,-0.6 -0.6,-1.55 0,-2.1c0.6,-0.6 1.55,-0.6 2.1,0l7,7c0.6,0.6 0.6,1.55 0,2.1c-0.3,0.3 -0.65,0.45 -1.05,0.45Z"></path>
    </g>
    <g>
        <path style="fill:#fff;fill-rule:nonzero;" d="M53,19.5c-0.85,0 -1.5,0.65 -1.5,1.5l-0.05,33.5c0,1.95 -1.55,3.5 -3.5,3.5l-21.95,0c-0.85,0 -1.5,0.65 -1.5,1.5c0,0.85 0.65,1.5 1.5,1.5l21.95,0c3.6,0 6.5,-2.9 6.5,-6.5l0.05,-33.5c0,-0.85 -0.7,-1.5 -1.5,-1.5Z"></path>
        <path style="fill:#fff;fill-rule:nonzero;" d="M51.15,6.4c-2.2,-2.2 -5.05,-3.4 -8.15,-3.4l-27,0c-3.6,0 -6.5,2.9 -6.5,6.5l0,24c0,0.85 0.65,1.5 1.5,1.5c0.85,0 1.5,-0.65 1.5,-1.5l0,-24c0,-1.95 1.55,-3.5 3.5,-3.5l25.5,0l0,3.5c0,3.6 2.9,6.5 6.5,6.5l5,0c0.6,0 1.15,-0.4 1.4,-0.9c0.1,-0.2 0.15,-0.4 0.15,-0.6c0,-0.05 0,-0.1 0,-0.2c-0.1,-3 -1.3,-5.8 -3.4,-7.9Zm-6.65,3.1l0,-3.35c1.7,0.3 3.25,1.1 4.5,2.35c1.25,1.25 2.05,2.8 2.35,4.5l-3.35,0c-1.95,0 -3.5,-1.55 -3.5,-3.5Z"></path>
    </g>
</svg>
