<svg xmlns:xlink="http://www.w3.org/1999/xlink" xmlns="http://www.w3.org/2000/svg" version="1.1" viewBox="0 0 288 288" height="288px" width="288px">
    
    <title>51D3DEA8-C839-4EC1-832A-7EFA54D4C72F</title>
    <desc>Created with sketchtool.</desc>
    <defs>
        <path id="path-1" d="M188,21.3513568 L156.970455,52.4353616 C145.945446,46.3308604 133.267763,42.8562859 119.78051,42.8562859 C77.2541056,42.8562859 42.7778981,77.3956688 42.7778981,120 C42.7778981,162.604331 77.2541056,197.143714 119.78051,197.143714 C133.267763,197.143714 145.945446,193.66914 156.970455,187.564638 L188,218.648643 C168.639768,232.11022 145.131085,240 119.78051,240 C53.6280593,240 0,186.273671 0,120 C0,53.7263293 53.6280593,0 119.78051,0 C145.131085,0 168.639768,7.88977984 188,21.3513568 Z M218.82592,51 C232.175728,70.2979426 240,93.730988 240,119 C240,144.269012 232.175728,167.704445 218.82592,187 L188,156.072677 C194.053817,145.08314 197.499542,132.443859 197.499542,119 C197.499542,105.556141 194.053817,92.9192472 188,81.92971 L218.82592,51 Z"></path>
        <filter id="filter-2" filterUnits="objectBoundingBox" height="130.0%" width="130.0%" y="-15.0%" x="-15.0%">
            <feOffset result="shadowOffsetOuter1" in="SourceAlpha" dy="0" dx="0"></feOffset>
            <feGaussianBlur result="shadowBlurOuter1" in="shadowOffsetOuter1" stdDeviation="12"></feGaussianBlur>
            <feComposite result="shadowBlurOuter1" operator="out" in2="SourceAlpha" in="shadowBlurOuter1"></feComposite>
            <feColorMatrix in="shadowBlurOuter1" type="matrix" values="0 0 0 0 0.639215686   0 0 0 0 0.705882353   0 0 0 0 0.8  0 0 0 0.12 0"></feColorMatrix>
        </filter>
    </defs>
    <g opacity="0.766415308" fill-rule="evenodd" fill="none" stroke-width="1" stroke="none" id="Homepage">
        <g transform="translate(-1567.000000, -5467.000000)" id="Homepage---XL,-L,-M-(hd-desktop,-desktop,-hd-laptop,-laptop)">
            <g transform="translate(0.000000, 1964.000000)" id="JOIN-MOVEMENT">
                <g transform="translate(0.000000, 3447.000000)" id="::-stats">
                    <g transform="translate(1591.000000, 80.000000)" id="::-stat-(chapters)">
                        <g id="symbol">
                            
                            
                        </g>
                    </g>
                </g>
            </g>
        </g>
    </g>
</svg>