<svg style="enable-background:new 0 0 64 64;; fill:#000000;" viewBox="0 0 64 64" height="80" width="80" y="0px" x="0px" xmlns="http://www.w3.org/2000/svg"><linearGradient spreadMethod="reflect" y2="36.5708" x2="41" y1="25.5" x1="41" gradientUnits="userSpaceOnUse" id="SVGID_1__44004">	<stop style="stop-color:#6DC7FF" offset="0"></stop>	<stop style="stop-color:#E6ABFF" offset="1"></stop></linearGradient><path d="M38,36h6c0.552,0,1-0.448,1-1v-8c0-0.552-0.448-1-1-1h-6c-0.552,0-1,0.448-1,1v8  C37,35.552,37.448,36,38,36z" style="fill:url(#SVGID_1__44004);"></path><linearGradient spreadMethod="reflect" y2="57.8677" x2="32" y1="5.75" x1="32" gradientUnits="userSpaceOnUse" id="SVGID_2__44004">	<stop style="stop-color:#1A6DFF" offset="0"></stop>	<stop style="stop-color:#C822FF" offset="1"></stop></linearGradient><path d="M49,10h-2c0-1.103-0.897-2-2-2h-8c0-1.103-0.897-2-2-2h-6c-1.103,0-2,0.897-2,2h-8  c-1.103,0-2,0.897-2,2h-2c-1.103,0-2,0.897-2,2v44c0,1.103,0.897,2,2,2h34c1.103,0,2-0.897,2-2V12C51,10.897,50.103,10,49,10z M29,8  h6v5c0,1.654-1.346,3-3,3s-3-1.346-3-3V8z M15,12h12v1c0,2.757,2.243,5,5,5s5-2.243,5-5v-1h12v32H39c-1.103,0-2,0.897-2,2v10H15V12z   M39,56V46h10v10H39z" style="fill:url(#SVGID_2__44004);"></path><linearGradient spreadMethod="reflect" y2="57.8677" x2="32" y1="5.75" x1="32" gradientUnits="userSpaceOnUse" id="SVGID_3__44004">	<stop style="stop-color:#1A6DFF" offset="0"></stop>	<stop style="stop-color:#C822FF" offset="1"></stop></linearGradient><rect height="2" width="26" style="fill:url(#SVGID_3__44004);" y="22" x="19"></rect><linearGradient spreadMethod="reflect" y2="57.8677" x2="26" y1="5.75" x1="26" gradientUnits="userSpaceOnUse" id="SVGID_4__44004">	<stop style="stop-color:#1A6DFF" offset="0"></stop>	<stop style="stop-color:#C822FF" offset="1"></stop></linearGradient><rect height="2" width="14" style="fill:url(#SVGID_4__44004);" y="26" x="19"></rect><linearGradient spreadMethod="reflect" y2="57.8677" x2="26" y1="5.75" x1="26" gradientUnits="userSpaceOnUse" id="SVGID_5__44004">	<stop style="stop-color:#1A6DFF" offset="0"></stop>	<stop style="stop-color:#C822FF" offset="1"></stop></linearGradient><rect height="2" width="14" style="fill:url(#SVGID_5__44004);" y="30" x="19"></rect><linearGradient spreadMethod="reflect" y2="57.8677" x2="26" y1="5.75" x1="26" gradientUnits="userSpaceOnUse" id="SVGID_6__44004">	<stop style="stop-color:#1A6DFF" offset="0"></stop>	<stop style="stop-color:#C822FF" offset="1"></stop></linearGradient><rect height="2" width="14" style="fill:url(#SVGID_6__44004);" y="34" x="19"></rect><linearGradient spreadMethod="reflect" y2="57.8677" x2="41" y1="5.75" x1="41" gradientUnits="userSpaceOnUse" id="SVGID_7__44004">	<stop style="stop-color:#1A6DFF" offset="0"></stop>	<stop style="stop-color:#C822FF" offset="1"></stop></linearGradient><rect height="2" width="8" style="fill:url(#SVGID_7__44004);" y="38" x="37"></rect><linearGradient spreadMethod="reflect" y2="57.8677" x2="20" y1="5.75" x1="20" gradientUnits="userSpaceOnUse" id="SVGID_8__44004">	<stop style="stop-color:#1A6DFF" offset="0"></stop>	<stop style="stop-color:#C822FF" offset="1"></stop></linearGradient><rect height="4" width="2" style="fill:url(#SVGID_8__44004);" y="48" x="19"></rect><linearGradient spreadMethod="reflect" y2="57.8677" x2="24" y1="5.75" x1="24" gradientUnits="userSpaceOnUse" id="SVGID_9__44004">	<stop style="stop-color:#1A6DFF" offset="0"></stop>	<stop style="stop-color:#C822FF" offset="1"></stop></linearGradient><rect height="4" width="2" style="fill:url(#SVGID_9__44004);" y="48" x="23"></rect><linearGradient spreadMethod="reflect" y2="57.8677" x2="28" y1="5.75" x1="28" gradientUnits="userSpaceOnUse" id="SVGID_10__44004">	<stop style="stop-color:#1A6DFF" offset="0"></stop>	<stop style="stop-color:#C822FF" offset="1"></stop></linearGradient><rect height="4" width="2" style="fill:url(#SVGID_10__44004);" y="48" x="27"></rect><linearGradient spreadMethod="reflect" y2="57.8677" x2="32" y1="5.75" x1="32" gradientUnits="userSpaceOnUse" id="SVGID_11__44004">	<stop style="stop-color:#1A6DFF" offset="0"></stop>	<stop style="stop-color:#C822FF" offset="1"></stop></linearGradient><rect height="4" width="2" style="fill:url(#SVGID_11__44004);" y="48" x="31"></rect><linearGradient spreadMethod="reflect" y2="57.8677" x2="43" y1="5.75" x1="43" gradientUnits="userSpaceOnUse" id="SVGID_12__44004">	<stop style="stop-color:#1A6DFF" offset="0"></stop>	<stop style="stop-color:#C822FF" offset="1"></stop></linearGradient><path d="M41,50v2h2v-2h2v-2h-2C41.897,48,41,48.897,41,50z" style="fill:url(#SVGID_12__44004);"></path><linearGradient spreadMethod="reflect" y2="57.8677" x2="26" y1="5.75" x1="26" gradientUnits="userSpaceOnUse" id="SVGID_13__44004">	<stop style="stop-color:#1A6DFF" offset="0"></stop>	<stop style="stop-color:#C822FF" offset="1"></stop></linearGradient><rect height="2" width="14" style="fill:url(#SVGID_13__44004);" y="38" x="19"></rect></svg>
